REM DIRINDEX 1\2,1\3
REM DIRNAME cjc140,folder01,folder02
TITLE ""
FILE "Track76.mp3" MP3
  TRACK 01 AUDIO
    TITLE "3:cjc140_266"
    INDEX 01 00:00:00
  TRACK 02 AUDIO
    TITLE "2:cjc140_267"
    INDEX 01 00:02:08
  TRACK 03 AUDIO
    TITLE "2:cjc140_268"
    INDEX 01 00:07:23
  TRACK 04 AUDIO
    TITLE "2:cjc140_269"
    INDEX 01 00:12:71
  TRACK 05 AUDIO
    TITLE "2:cjc140_270"
    INDEX 01 00:19:56
  TRACK 06 AUDIO
    TITLE "0:"
    INDEX 01 00:27:55
